<?xml version="1.0" encoding="UTF-8"?>
<svg id="Layer_1" data-name="Layer 1" xmlns="http://www.w3.org/2000/svg" version="1.1" viewBox="0 0 500 500">
  <defs>
    <style>
      .cls-1 {
        fill: #010101;
        stroke-width: 0px;
      }
    </style>
  </defs>
  <path class="cls-1" d="M494.6,337.9c-6.5,16.7-16.7,29.7-30.9,39.7-3.4,2.4-5.6,5-6,9.5-3.2,38.2-29.2,67.8-67.7,77.1-5.6,1.4-9.8,3.8-13.8,8.3-29.6,33.4-85.7,36.4-120.9,6.7-1.6-1.4-3.2-2.8-5.5-4.9-12,10.2-25,18.9-40.6,22.5-34.6,7.9-64.5.3-88.5-25.9-2.6-2.9-5.6-4.4-9.3-5.5-40.9-11.5-64.9-37.3-70.2-78.8-.6-4.7-2.5-7.6-6.1-10.4C-.4,348.7-8.7,304.5,14.7,266.7c2.9-4.6,2.7-7.7-.1-12.1C-9,217.8-1.8,172.7,31.8,143.9c4.9-4.2,9.9-7.6,9.1-15.5-4.9-49,35.6-84,77.4-90.1,4.3-.6,7.3-2.2,10.1-5.5C155,1.8,201.1-9,239.9,7.3c6.6,2.8,11.9,2.6,18.3,0,39.8-16.1,86.6-5.4,114.6,25.9,2.5,2.8,5.1,4.6,9.2,5.2,43.5,6.3,73.9,37.1,79,79.6,0,.3.1.6,0,.9-4.6,14.6,5.1,22.3,14.3,31.7,29.3,29.9,33.2,69.9,11.4,104.9-2.5,4-3.3,7-.4,11.4,14.5,22,16.3,45.7,8.1,71M236.5,143.2c0-33-.2-65.9.2-98.9,0-7.7-3-11.4-9.9-14.1-27.3-10.6-57.4-3.7-77.8,20.5-8,9.5-16.7,12.6-28.1,14.4-28.4,4.3-58.8,25.4-52.1,66.8,2,12.2-1.1,18.6-11.4,25.2-31,20-43.2,61.4-12.9,93.2,6.3,6.6,6.7,12.4.5,19.8-27,32.2-21.2,67.7,14.7,90.5,6.2,3.9,8.9,8.4,8.6,15.6-.6,15.6,4.2,29.7,14.2,42.1,11.4,14.1,26.9,21.1,44.4,24.3,5,.9,8.6,2.8,11.5,6.8,12.9,17.8,30.6,25.6,52.9,24.5,21.9-1,40.8-16.2,45.4-37,1.5-6.8,6.5-9.7,12.8-9.5,6.2.1,12,2.8,12.3,9.9.3,7.9,4.3,13.7,9.4,19.1,23.6,24.8,63.6,23.6,85.9-3.3,5.8-7,12.2-10.1,20.6-11.9,32.8-7,54.2-32.3,54.3-64.6,0-8,3.1-12.5,9.8-16.7,35.9-22.2,41.5-57.8,14.1-89.4-6.1-7-5.7-12.5.4-18.9,6.6-6.9,11.9-14.7,14.9-23.8,8.4-26.3-2.4-54.2-29.3-71.2-9-5.7-11.7-12.5-9.3-21.2,8.5-30-16.1-67.2-56.8-70.3-8.6-.7-15.3-3.5-21.2-10.8-20-24.8-52-34.2-79.7-25.2-9.1,3-13.2,7.5-13,17.6.6,47.5.3,95,.2,142.5,0,10.9-4.3,16.1-13,16.1-8.5,0-12.6-5.3-12.6-16.4,0-14.5,0-29,0-45.4Z"/>
  <path class="cls-1" d="M360.8,106.3c9.5-2.1,18.3-3.9,27.1-5.7,12.2-2.4,19,4,17.3,16.3-1.9,14.3-3.8,28.7-5.4,43-1.3,11.5-5.3,16-14.9,15.6-9-.3-12.3-4.6-12.4-16.4,0-1.5,0-3,0-5-4,.3-5.4,3.2-7.4,5.2-36.4,36.4-72.6,72.9-109,109.3-12.2,12.2-20.7,12.3-33.2.3-10.1-9.7-19.9-19.9-29.1-29.1-5.5.7-7.3,3.8-9.7,6.1-22.6,22-45.1,44.2-67.6,66.3-2.6,2.6-5.2,5.2-8.1,7.4-7.2,5.4-14.8,4.9-20-1-4.7-5.3-4.2-12.8,1.8-18.7,28.8-28.4,57.7-56.7,86.7-84.9,9.3-9,19.5-9,28.8,0,10.8,10.4,20.8,21.5,32,33.2,40.1-37.1,75.2-75.8,114-112.6-4.8,0-8.3,0-11.9,0-7.1,0-10.9-3.9-11.8-10.4-1-6.7,1.3-12.3,8.4-14.2,7.8-2,15.8-3.1,24.4-4.8Z"/>
  <path class="cls-1" d="M356.1,219c4.9-5.8,10.1-7.8,16.8-4.9,6.6,2.9,8.4,8.1,8.4,14.7,0,56.5,0,112.9,0,169.4,0,9.9-5.3,16.2-13.4,16.5-8.2.2-13.9-6.5-13.9-16.9,0-56.2,0-112.3,0-168.5,0-3.3,0-6.7,2.2-10.3Z"/>
  <path class="cls-1" d="M308.4,351c0,16,0,31.1,0,46.2,0,7-1.6,13.2-9.4,16.1-9.1,3.3-17.6-2.2-17.7-12.2-.3-19.6-.2-39.3-.2-58.9,0-17.5,0-35,0-52.6,0-10.2,4.4-15.8,12.2-16.2,8.8-.5,14.7,5.4,14.9,16,.3,20.2.1,40.5.1,61.6Z"/>
  <path class="cls-1" d="M206.6,338.3c0-7.9,0-14.8,0-21.7,0-7.6,4.1-12.1,11.5-13,7.4-.9,12.5,2.8,14.5,9.9.7,2.3,1.1,4.7,1.1,7.1,0,25.7.2,51.3,0,77,0,10.9-6.5,18-15,16.8-8.1-1.2-12.3-6-12.2-14.4.2-20.2,0-40.5,0-61.6Z"/>
  <path class="cls-1" d="M166.9,150.7c7.8,6.7,16.6,9.3,25.9,10.8,7.8,1.3,11.7,5.8,11.1,13.1-.6,7.6-5.1,11.7-13.5,12-25.6.7-54-19.8-59-42.9-2-9.3,1.4-16.4,8.8-18.3,8.8-2.3,14.7,1.5,17.3,11.6,1.5,5.6,4.6,9.8,9.4,13.8Z"/>
  <path class="cls-1" d="M159.4,401c-.8,9.3-6.3,13.5-14.3,13.2-8.5-.3-12.6-6.4-12.8-14.1-.4-17.5-.4-35.1,0-52.6.2-8.6,6.2-13.7,14.3-13.4,8.4.3,12.8,4.9,12.9,14.4.1,17.2,0,34.5,0,52.5Z"/>
</svg>